<svg id="Layer_1" data-name="Layer 1" xmlns="http://www.w3.org/2000/svg" xmlns:xlink="http://www.w3.org/1999/xlink" viewBox="0 0 421.68 421.68">
  <defs>
    <style>
      .cls-1 {
        fill: url(#linear-gradient);
      }

      .cls-2 {
        opacity: 0.2;
      }

      .cls-3 {
        fill: #fff;
      }
    </style>
    <linearGradient id="linear-gradient" x1="210.84" x2="210.84" y2="421.68" gradientUnits="userSpaceOnUse">
      <stop offset="0" stop-color="#2fb528"/>
      <stop offset="1" stop-color="#3700b0"/>
    </linearGradient>
  </defs>
  <circle class="cls-1" cx="210.84" cy="210.84" r="210.84"/>
  <path class="cls-2" d="M1047.64,486.16c43.46,12.68,75.92,50.3,83.34,96a1.72,1.72,0,0,0,3.35.15c4.24-16,10.3-51-6.11-85.75-4.34-9.16-20.18-37.14-48.72-48.8-41-16.74-98.87,4.39-139.24,56.4a1.72,1.72,0,0,0,2.4,2.42C972.64,483.59,1011.65,475.66,1047.64,486.16Z" transform="translate(-755.16 -334.25)"/>
  <path class="cls-2" d="M956.62,444.44c32.71-31.3,81.52-40.6,124.8-24.17a1.71,1.71,0,0,0,1.83-2.81c-11.77-11.7-39.06-34.47-77.34-37.6-10.1-.83-42.25-1.1-66.61,17.79-35,27.13-45.64,87.82-20.78,148.78a1.72,1.72,0,0,0,3.3-.86C916.9,508.11,929.53,470.36,956.62,444.44Z" transform="translate(-755.16 -334.25)"/>
  <path class="cls-2" d="M875,502.41c-10.75-44,5.6-90.91,41.47-120.18a1.71,1.71,0,0,0-1.54-3c-16,4.35-49.37,16.6-71.21,48.16-5.77,8.34-22.08,36.05-17.9,66.59,6,43.88,53.23,83.44,118.46,92.39a1.72,1.72,0,0,0,.9-3.29C910.26,568.64,883.88,538.82,875,502.41Z" transform="translate(-755.16 -334.25)"/>
  <path class="cls-2" d="M884.36,602.09c-43.46-12.68-75.92-50.3-83.34-96a1.72,1.72,0,0,0-3.35-.15c-4.24,16.05-10.3,51.05,6.11,85.75,4.34,9.16,20.18,37.14,48.72,48.8,41,16.74,98.87-4.39,139.24-56.4a1.72,1.72,0,0,0-2.4-2.42C959.36,604.66,920.35,612.59,884.36,602.09Z" transform="translate(-755.16 -334.25)"/>
  <path class="cls-2" d="M975.38,643.81c-32.71,31.3-81.52,40.6-124.8,24.17a1.71,1.71,0,0,0-1.83,2.81c11.77,11.7,39.06,34.47,77.34,37.6,10.1.83,42.25,1.1,66.61-17.79,35-27.13,45.64-87.82,20.78-148.78a1.72,1.72,0,0,0-3.3.86C1015.1,580.14,1002.47,617.89,975.38,643.81Z" transform="translate(-755.16 -334.25)"/>
  <path class="cls-2" d="M1057,585.84c10.75,44-5.6,90.91-41.47,120.18a1.71,1.71,0,0,0,1.54,3c16-4.35,49.37-16.6,71.21-48.16,5.77-8.34,22.08-36.05,17.9-66.59-6-43.88-53.23-83.44-118.46-92.39a1.72,1.72,0,0,0-.9,3.29C1021.74,519.61,1048.12,549.43,1057,585.84Z" transform="translate(-755.16 -334.25)"/>
  <path class="cls-3" d="M1066.22,476.44c22.21,10.82,36.76,33,42.3,41.64,15.1,23.48,20.53,47.36,22.6,63.42a1.72,1.72,0,0,0,3.36.23c4.24-16.31,10-50.88-6.26-85.17-4.34-9.16-20.18-37.14-48.72-48.8-40.82-16.66-98.37,4.21-138.71,55.73a1.71,1.71,0,0,0,2.43,2.39C984.33,472.2,1032.16,459.85,1066.22,476.44Z" transform="translate(-755.16 -334.25)"/>
  <path class="cls-3" d="M957.49,423.49c20.48-13.83,47-15.33,57.21-15.82,27.88-1.33,51.28,5.91,66.22,12.15a1.72,1.72,0,0,0,1.88-2.8c-12-11.82-39.08-34.07-76.89-37.16-10.1-.83-42.25-1.1-66.61,17.79-34.85,27-45.55,87.3-21.1,148a1.72,1.72,0,0,0,3.29-.92C912.88,492.29,926.09,444.69,957.49,423.49Z" transform="translate(-755.16 -334.25)"/>
  <path class="cls-3" d="M857.27,491.18c-1.73-24.65,10.22-48.35,14.91-57.46,12.79-24.81,30.75-41.46,43.63-51.28a1.71,1.71,0,0,0-1.49-3c-16.24,4.48-49,16.81-70.62,48-5.77,8.34-22.08,36.05-17.9,66.59,6,43.69,52.83,83.09,117.62,92.27a1.72,1.72,0,0,0,.85-3.31C894.55,564.22,859.93,529,857.27,491.18Z" transform="translate(-755.16 -334.25)"/>
  <path class="cls-3" d="M865.78,611.81c-22.21-10.82-36.76-33-42.3-41.64-15.1-23.48-20.53-47.36-22.6-63.42a1.72,1.72,0,0,0-3.36-.23c-4.24,16.31-10,50.88,6.26,85.17,4.34,9.16,20.18,37.14,48.72,48.8,40.82,16.66,98.37-4.21,138.71-55.73a1.71,1.71,0,0,0-2.43-2.39C947.67,616.05,899.84,628.4,865.78,611.81Z" transform="translate(-755.16 -334.25)"/>
  <path class="cls-3" d="M974.51,664.76c-20.48,13.83-47,15.33-57.21,15.82-27.88,1.33-51.28-5.91-66.22-12.15a1.72,1.72,0,0,0-1.88,2.8c12,11.82,39.08,34.07,76.89,37.16,10.1.83,42.25,1.1,66.61-17.79,34.85-27,45.55-87.3,21.1-148a1.72,1.72,0,0,0-3.29.92C1019.12,596,1005.91,643.56,974.51,664.76Z" transform="translate(-755.16 -334.25)"/>
  <path class="cls-3" d="M1074.73,597.07c1.73,24.65-10.22,48.35-14.91,57.46-12.79,24.81-30.75,41.46-43.63,51.28a1.71,1.71,0,0,0,1.49,3c16.24-4.48,49-16.81,70.62-48,5.77-8.34,22.08-36.05,17.9-66.59-6-43.69-52.83-83.09-117.62-92.27a1.72,1.72,0,0,0-.85,3.31C1037.45,524,1072.07,559.28,1074.73,597.07Z" transform="translate(-755.16 -334.25)"/>
  <path class="cls-2" d="M989.61,526.47l-20.12-11.62a7,7,0,0,0-7,0l-20.12,11.62a7,7,0,0,0-3.49,6v23.25a7,7,0,0,0,3.49,6l20.12,11.62a7,7,0,0,0,7,0l20.12-11.62a7,7,0,0,0,3.49-6V532.5A7,7,0,0,0,989.61,526.47Zm-2.51,25.81a7,7,0,0,1-3.49,6l-14.12,8.15a7,7,0,0,1-7,0l-14.12-8.15a7,7,0,0,1-3.49-6V536a7,7,0,0,1,3.49-6l14.12-8.15a7,7,0,0,1,7,0l14.12,8.15a7,7,0,0,1,3.49,6Z" transform="translate(-755.16 -334.25)"/>
  <path class="cls-3" d="M996.33,521.44l-25.85-14.92a9,9,0,0,0-9,0l-25.85,14.92a9,9,0,0,0-4.48,7.76v29.85a9,9,0,0,0,4.48,7.76l25.85,14.92a9,9,0,0,0,9,0l25.85-14.92a9,9,0,0,0,4.48-7.76V529.2A9,9,0,0,0,996.33,521.44ZM993.1,554.6a9,9,0,0,1-4.48,7.76l-18.14,10.47a9,9,0,0,1-9,0l-18.14-10.47a9,9,0,0,1-4.48-7.76v-21a9,9,0,0,1,4.48-7.76l18.14-10.47a9,9,0,0,1,9,0l18.14,10.47a9,9,0,0,1,4.48,7.76Z" transform="translate(-755.16 -334.25)"/>
</svg>
