<svg xmlns="http://www.w3.org/2000/svg" viewBox="0 0 38.91 30.41"><defs><style>.cls-1{fill:#3099cf;}.cls-2{fill:#b4deef;}.cls-3{fill:#ef4242;}.cls-4{fill:#3094af;}.cls-5{fill:#f05253;}</style></defs><g id="Layer_2" data-name="Layer 2"><g id="Layer_1-2" data-name="Layer 1"><rect class="cls-1" x="2.58" y="14.51" width="11.18" height="11.21" rx="0.58"/><rect class="cls-2" x="5.15" y="16.28" width="6.03" height="7.67" rx="0.58"/><path class="cls-1" d="M14.74,17.09V14.78a.23.23,0,0,1,0-.2.28.28,0,0,1,.25-.06H16.5a1,1,0,0,0,.86-.37c2.63-2.91,5.29-5.82,7.93-8.73l.19-.22L27.13,7l6.57,7.24a.88.88,0,0,0,.73.31H36.3v10.7c0,.4-.1.5-.51.5H26.44c-.37,0-.48-.08-.47-.49a10.61,10.61,0,0,0-.1-2.32,3,3,0,0,0-3.3-2.4,3.11,3.11,0,0,0-2.76,3.11v1.78c0,.24-.09.32-.32.32H15.08a.4.4,0,0,1-.28-.07.32.32,0,0,1-.07-.23V17.09Z"/><path class="cls-3" d="M20.32,4.12,19,5.57l-7.33,7.77a.69.69,0,0,1-.47.22H1.62l-.11-.05,1.11-1.23Q6.19,8.41,9.73,4.52a1.1,1.1,0,0,1,.92-.41h9.67Z"/><path class="cls-3" d="M25.52,0,37.44,13.52H34.7a.63.63,0,0,1-.43-.17l-6-6.53L26,4.33c-.37-.42-.63-.41-1,0l-8,8.83a1.1,1.1,0,0,1-1,.4c-.93-.05-1.87,0-2.81,0h-.48Z"/><path class="cls-4" d="M25,30.39H20.84V23.58a2.12,2.12,0,0,1,4.23-.09v6.73A.87.87,0,0,1,25,30.39Z"/><path class="cls-4" d="M19.82,30.4H17.6a.34.34,0,0,1-.25-.24V26.92c0-.08.11-.24.18-.24h2.29Z"/><path class="cls-4" d="M33,26.66h2.26c.07,0,.2.17.2.26v3.2c0,.09-.12.26-.19.26H33Z"/><path class="cls-4" d="M5.94,30.4H3.66c-.07,0-.19-.14-.19-.22V26.9a.3.3,0,0,1,.2-.22H5.94Z"/><path class="cls-4" d="M32,28.52V30.1c0,.22-.07.31-.3.31H29.8c-.25,0-.31-.1-.31-.33V27c0-.24.1-.34.33-.33h1.86c.23,0,.33.08.32.33v1.52Z"/><path class="cls-4" d="M38.91,26.66V30.4H36.62c-.07,0-.17-.16-.18-.24V26.92a.32.32,0,0,1,.22-.24C37.4,26.65,38.14,26.66,38.91,26.66Z"/><path class="cls-4" d="M0,30.4V26.66H2.26c.08,0,.21.16.21.25v3.24a.32.32,0,0,1-.22.23C1.52,30.41.78,30.4,0,30.4Z"/><path class="cls-4" d="M6.94,28.52V27c0-.24.09-.32.33-.32H9.08c.26,0,.37.09.37.37v3c0,.23-.06.33-.31.33H7.24c-.23,0-.3-.09-.3-.31Z"/><path class="cls-4" d="M12.89,26.66v3.48c0,.09-.19.25-.29.25H10.7c-.22,0-.31-.08-.31-.3V26.92c0-.09.15-.27.24-.27Z"/><path class="cls-4" d="M13.86,30.4V26.9a.32.32,0,0,1,.22-.23h2a.38.38,0,0,1,.29.26v3.24c0,.08-.12.22-.19.22C15.41,30.41,14.66,30.4,13.86,30.4Z"/><path class="cls-4" d="M26,26.66h2.27c.09,0,.23.18.23.28v3.17a.37.37,0,0,1-.26.27h-2a.32.32,0,0,1-.24-.22Z"/><path class="cls-5" d="M32.85,6.67c-1.13-1.16-1.94-2-2.17-2.26a1,1,0,0,1-.31-.51.49.49,0,0,1,0-.17V2.67a.32.32,0,0,1,.08-.2.36.36,0,0,1,.29-.11h1.83a.3.3,0,0,1,.24.07.36.36,0,0,1,.06.2Z"/><circle class="cls-2" cx="25.55" cy="12.27" r="2.24"/></g></g></svg>