<svg id="Layer_1" data-name="Layer 1" xmlns="http://www.w3.org/2000/svg" viewBox="0 0 62.6 30.41"><defs><style>.cls-1{fill:#3099cf;}.cls-2{fill:#b4deef;}.cls-3{fill:#ef4242;}.cls-4{fill:#3094af;}.cls-5{fill:#f05253;}.cls-6{isolation:isolate;}.cls-7{fill:#f4f4f5;}</style></defs><rect class="cls-1" x="2.58" y="14.51" width="11.18" height="11.21" rx="0.58"/><rect class="cls-2" x="5.15" y="16.28" width="6.03" height="7.67" rx="0.58"/><path class="cls-1" d="M14.74,17.09V14.78a.23.23,0,0,1,0-.2.28.28,0,0,1,.25-.06H16.5a1,1,0,0,0,.86-.37c2.63-2.91,5.29-5.82,7.93-8.73l.19-.22L27.13,7l6.57,7.24a.88.88,0,0,0,.73.31H36.3v10.7c0,.4-.1.5-.51.5H26.44c-.37,0-.48-.08-.47-.49a10.61,10.61,0,0,0-.1-2.32,3,3,0,0,0-3.3-2.4,3.11,3.11,0,0,0-2.76,3.11v1.78c0,.24-.09.32-.32.32H15.08a.4.4,0,0,1-.28-.07.32.32,0,0,1-.07-.23V17.09Z"/><path class="cls-3" d="M20.32,4.12,19,5.57l-7.33,7.77a.69.69,0,0,1-.47.22H1.62l-.11-.05,1.11-1.23Q6.19,8.41,9.73,4.52a1.1,1.1,0,0,1,.92-.41h9.67Z"/><path class="cls-3" d="M25.52,0,37.44,13.52H34.7a.63.63,0,0,1-.43-.17l-6-6.53L26,4.33c-.37-.42-.63-.41-1,0l-8,8.83a1.1,1.1,0,0,1-1,.4c-.93-.05-1.87,0-2.81,0h-.48Z"/><path class="cls-4" d="M25,30.39H20.84V23.58a2.12,2.12,0,0,1,4.23-.09v6.73A.87.87,0,0,1,25,30.39Z"/><path class="cls-4" d="M19.82,30.4H17.6a.34.34,0,0,1-.25-.24V26.92c0-.08.11-.24.18-.24h2.29Z"/><path class="cls-4" d="M33,26.66h2.26c.07,0,.2.17.2.26v3.2c0,.09-.12.26-.19.26H33Z"/><path class="cls-4" d="M5.94,30.4H3.66c-.07,0-.19-.14-.19-.22V26.9a.3.3,0,0,1,.2-.22H5.94Z"/><path class="cls-4" d="M32,28.52V30.1c0,.22-.07.31-.3.31H29.8c-.25,0-.31-.1-.31-.33V27c0-.24.1-.34.33-.33h1.86c.23,0,.33.08.32.33v1.54Z"/><path class="cls-4" d="M38.91,26.66V30.4H36.62c-.07,0-.17-.16-.18-.24V26.92a.32.32,0,0,1,.22-.24C37.4,26.65,38.14,26.66,38.91,26.66Z"/><path class="cls-4" d="M0,30.4V26.66H2.26c.08,0,.21.16.21.25v3.24a.32.32,0,0,1-.22.23C1.52,30.41.78,30.4,0,30.4Z"/><path class="cls-4" d="M6.94,28.52V27c0-.24.09-.32.33-.32H9.08c.26,0,.37.09.37.37v3c0,.23-.06.33-.31.33H7.24c-.23,0-.3-.09-.3-.31V28.52Z"/><path class="cls-4" d="M12.89,26.66v3.48c0,.09-.19.25-.29.25H10.7c-.22,0-.31-.08-.31-.3V26.92c0-.09.15-.27.24-.27Z"/><path class="cls-4" d="M13.86,30.4V26.9a.32.32,0,0,1,.22-.23h2a.38.38,0,0,1,.29.26v3.24c0,.08-.12.22-.19.22C15.41,30.41,14.66,30.4,13.86,30.4Z"/><path class="cls-4" d="M26,26.66h2.27c.09,0,.23.18.23.28v3.17a.37.37,0,0,1-.26.27h-2a.32.32,0,0,1-.24-.22Z"/><path class="cls-5" d="M32.85,6.67c-1.13-1.16-1.94-2-2.17-2.26a1,1,0,0,1-.31-.51.49.49,0,0,1,0-.17V2.67a.32.32,0,0,1,.08-.2.36.36,0,0,1,.29-.11h1.83a.3.3,0,0,1,.24.07.3.3,0,0,1,.06.2Z"/><circle class="cls-2" cx="25.55" cy="12.27" r="2.24"/><g class="cls-6"><g class="cls-6"><path class="cls-3" d="M39.87,12.27V7.06h.69V9.2h2.71V7.06H44v5.21h-.69V9.81H40.56v2.46Z"/><path class="cls-3" d="M44.79,10.38a1.94,1.94,0,0,1,.58-1.55,1.77,1.77,0,0,1,1.19-.42,1.69,1.69,0,0,1,1.27.51,1.94,1.94,0,0,1,.5,1.41,2.61,2.61,0,0,1-.22,1.15,1.58,1.58,0,0,1-.64.64,1.79,1.79,0,0,1-.91.23,1.67,1.67,0,0,1-1.28-.5A2,2,0,0,1,44.79,10.38Zm.66,0a1.61,1.61,0,0,0,.31,1.09,1,1,0,0,0,.8.36,1,1,0,0,0,.79-.36,1.65,1.65,0,0,0,.32-1.11,1.56,1.56,0,0,0-.32-1.06,1.06,1.06,0,0,0-1.59,0A1.6,1.6,0,0,0,45.45,10.38Z"/><path class="cls-3" d="M49.06,12.27V7.06h.64v5.21Z"/><path class="cls-3" d="M50.7,7.79V7.06h.64v.73Zm0,4.48V8.49h.64v3.78Z"/><path class="cls-3" d="M54.76,12.27v-.48a1.16,1.16,0,0,1-1.06.56,1.54,1.54,0,0,1-.83-.24,1.67,1.67,0,0,1-.58-.7,2.38,2.38,0,0,1-.21-1,2.63,2.63,0,0,1,.19-1,1.48,1.48,0,0,1,.56-.71,1.56,1.56,0,0,1,.85-.24,1.3,1.3,0,0,1,.6.14,1.25,1.25,0,0,1,.44.38V7.06h.63v5.21Zm-2-1.88a1.66,1.66,0,0,0,.3,1.08.94.94,0,0,0,.72.36.92.92,0,0,0,.72-.34,1.62,1.62,0,0,0,.29-1.05,1.77,1.77,0,0,0-.3-1.14.91.91,0,0,0-.73-.36.9.9,0,0,0-.72.35A1.73,1.73,0,0,0,52.74,10.39Z"/></g><g class="cls-6"><path class="cls-3" d="M58.51,11.8a2.07,2.07,0,0,1-.68.43,2,2,0,0,1-.71.12,1.37,1.37,0,0,1-.95-.3,1,1,0,0,1-.34-.78,1.06,1.06,0,0,1,.13-.5,1,1,0,0,1,.33-.37,1.75,1.75,0,0,1,.46-.21l.57-.1a5.3,5.3,0,0,0,1.14-.22V9.71a.7.7,0,0,0-.18-.55,1,1,0,0,0-.73-.22,1.07,1.07,0,0,0-.66.16.92.92,0,0,0-.32.56l-.63-.09a1.62,1.62,0,0,1,.28-.65,1.27,1.27,0,0,1,.57-.38,2.51,2.51,0,0,1,.86-.13,2.39,2.39,0,0,1,.78.11,1.1,1.1,0,0,1,.45.29,1.07,1.07,0,0,1,.2.43,4,4,0,0,1,0,.6v.85a8.68,8.68,0,0,0,0,1.13,1.28,1.28,0,0,0,.16.45h-.67A1.53,1.53,0,0,1,58.51,11.8Zm0-1.42a5.22,5.22,0,0,1-1,.24,2.43,2.43,0,0,0-.56.12.61.61,0,0,0-.26.21.55.55,0,0,0-.08.31.52.52,0,0,0,.19.42.81.81,0,0,0,.57.17,1.28,1.28,0,0,0,.65-.16,1,1,0,0,0,.43-.44,1.56,1.56,0,0,0,.1-.64Z"/></g><g class="cls-6"><path class="cls-3" d="M59.47,13.72l-.07-.6a1.35,1.35,0,0,0,.37.06.69.69,0,0,0,.34-.07.66.66,0,0,0,.21-.2,3,3,0,0,0,.19-.48l.06-.15L59.14,8.49h.69l.78,2.19c.1.28.2.57.28.88a8.7,8.7,0,0,1,.26-.87L62,8.49h.64l-1.44,3.84a6.15,6.15,0,0,1-.36.86,1.13,1.13,0,0,1-.39.46.92.92,0,0,1-.53.15A1.1,1.1,0,0,1,59.47,13.72Z"/></g><g class="cls-6"><path class="cls-7" d="M48.48,16.53V15.8h.64v.73Zm0,4.48V17.23h.64V21Z"/><path class="cls-7" d="M50.1,21V17.23h.57v.54a1.38,1.38,0,0,1,1.21-.62,1.59,1.59,0,0,1,.62.12,1,1,0,0,1,.43.32,1.22,1.22,0,0,1,.2.48,4.18,4.18,0,0,1,0,.62V21h-.63v-2.3a1.67,1.67,0,0,0-.08-.58.65.65,0,0,0-.26-.31.84.84,0,0,0-.45-.12A1.07,1.07,0,0,0,51,18a1.33,1.33,0,0,0-.29,1V21Z"/></g><g class="cls-6"><path class="cls-1" d="M42.45,28.08,43.1,28a1.47,1.47,0,0,0,.21.64,1.2,1.2,0,0,0,.53.41,2,2,0,0,0,.8.15,1.85,1.85,0,0,0,.69-.12.92.92,0,0,0,.45-.32.72.72,0,0,0,.15-.45.68.68,0,0,0-.14-.42,1.07,1.07,0,0,0-.47-.31,7.19,7.19,0,0,0-.93-.25,5,5,0,0,1-1-.33,1.41,1.41,0,0,1-.56-.48,1.25,1.25,0,0,1-.18-.65,1.31,1.31,0,0,1,.22-.74,1.41,1.41,0,0,1,.65-.52,2.74,2.74,0,0,1,2,0,1.38,1.38,0,0,1,.68.55,1.53,1.53,0,0,1,.26.82l-.66,0a1.12,1.12,0,0,0-.36-.75,1.85,1.85,0,0,0-1.82,0,.68.68,0,0,0-.29.55.6.6,0,0,0,.2.46,2.71,2.71,0,0,0,1,.37,6.69,6.69,0,0,1,1.16.34,1.59,1.59,0,0,1,.67.53,1.32,1.32,0,0,1,.22.74,1.38,1.38,0,0,1-.24.78,1.5,1.5,0,0,1-.69.57,2.29,2.29,0,0,1-1,.21,3,3,0,0,1-1.19-.21,1.58,1.58,0,0,1-.75-.62A1.75,1.75,0,0,1,42.45,28.08Z"/></g><g class="cls-6"><path class="cls-1" d="M48.81,28.53l.66.09a1.64,1.64,0,0,1-.57.9,1.79,1.79,0,0,1-1.08.31,1.73,1.73,0,0,1-1.32-.5A2,2,0,0,1,46,27.89a2.06,2.06,0,0,1,.49-1.47,1.65,1.65,0,0,1,1.27-.53,1.59,1.59,0,0,1,1.24.52,2,2,0,0,1,.48,1.45,1.31,1.31,0,0,1,0,.17H46.68A1.44,1.44,0,0,0,47,29a1,1,0,0,0,.79.33,1,1,0,0,0,.6-.19A1.14,1.14,0,0,0,48.81,28.53Zm-2.1-1h2.11a1.26,1.26,0,0,0-.24-.71,1,1,0,0,0-.79-.37,1,1,0,0,0-.74.29A1.18,1.18,0,0,0,46.71,27.5Z"/></g><g class="cls-6"><path class="cls-1" d="M49.87,29.75V26h.58v.58a1.46,1.46,0,0,1,.41-.53.67.67,0,0,1,.41-.13,1.22,1.22,0,0,1,.65.21l-.22.59a.92.92,0,0,0-.47-.14.56.56,0,0,0-.37.13.69.69,0,0,0-.24.35,2.45,2.45,0,0,0-.11.74v2Z"/></g><g class="cls-6"><path class="cls-1" d="M52.88,29.75h-.59V24.54h.64V26.4a1.26,1.26,0,0,1,1-.51,1.66,1.66,0,0,1,.66.14,1.25,1.25,0,0,1,.51.39,1.91,1.91,0,0,1,.32.62,2.7,2.7,0,0,1,.11.77,2.18,2.18,0,0,1-.48,1.5,1.5,1.5,0,0,1-1.15.52,1.19,1.19,0,0,1-1-.55Zm0-1.92a1.92,1.92,0,0,0,.19,1A.92.92,0,0,0,54.6,29a1.71,1.71,0,0,0,.31-1.09,1.65,1.65,0,0,0-.3-1.09.87.87,0,0,0-.71-.35.91.91,0,0,0-.72.36A1.55,1.55,0,0,0,52.87,27.83Z"/><path class="cls-1" d="M56.34,25.27v-.73H57v.73Zm0,4.48V26H57v3.78Z"/><path class="cls-1" d="M60.42,29.28a2.21,2.21,0,0,1-.69.43,2,2,0,0,1-.7.12,1.4,1.4,0,0,1-1-.3,1,1,0,0,1-.33-.78,1,1,0,0,1,.13-.5,1,1,0,0,1,.33-.37,1.62,1.62,0,0,1,.46-.21l.56-.1a5.56,5.56,0,0,0,1.15-.22v-.16a.7.7,0,0,0-.18-.55,1.06,1.06,0,0,0-.73-.22,1.12,1.12,0,0,0-.67.16,1,1,0,0,0-.32.56l-.62-.09a1.62,1.62,0,0,1,.28-.65A1.27,1.27,0,0,1,58.7,26a2.87,2.87,0,0,1,1.64,0,1,1,0,0,1,.44.29,1,1,0,0,1,.2.43,4,4,0,0,1,0,.6v.85a11.13,11.13,0,0,0,0,1.13,1.3,1.3,0,0,0,.17.45h-.67A1.3,1.3,0,0,1,60.42,29.28Zm-.05-1.42a5.35,5.35,0,0,1-1,.24,2.57,2.57,0,0,0-.56.12.58.58,0,0,0-.25.21.56.56,0,0,0-.09.31.53.53,0,0,0,.2.42.77.77,0,0,0,.56.17,1.29,1.29,0,0,0,.66-.16,1,1,0,0,0,.42-.44,1.53,1.53,0,0,0,.11-.64Z"/></g></g></svg>